<svg width="25" height="24" viewBox="0 0 25 24" fill="none" xmlns="http://www.w3.org/2000/svg">
<path d="M21.6367 6.20158L13.3867 1.68752C13.1662 1.56572 12.9185 1.50183 12.6667 1.50183C12.4148 1.50183 12.1671 1.56572 11.9467 1.68752L3.69666 6.20345C3.46106 6.33237 3.26439 6.52217 3.12718 6.75304C2.98998 6.98391 2.91727 7.24739 2.91666 7.51595V16.4822C2.91727 16.7508 2.98998 17.0142 3.12718 17.2451C3.26439 17.476 3.46106 17.6658 3.69666 17.7947L11.9467 22.3106C12.1671 22.4324 12.4148 22.4963 12.6667 22.4963C12.9185 22.4963 13.1662 22.4324 13.3867 22.3106L21.6367 17.7947C21.8723 17.6658 22.0689 17.476 22.2061 17.2451C22.3434 17.0142 22.4161 16.7508 22.4167 16.4822V7.51689C22.4166 7.24785 22.3441 6.98379 22.2069 6.75238C22.0696 6.52096 21.8727 6.33072 21.6367 6.20158ZM12.6667 3.00002L20.1985 7.12502L17.4076 8.65314L9.87479 4.52814L12.6667 3.00002ZM12.6667 11.25L5.13479 7.12502L8.31291 5.38502L15.8448 9.51002L12.6667 11.25ZM4.41666 8.43752L11.9167 12.5419V20.5847L4.41666 16.4831V8.43752ZM20.9167 16.4794L13.4167 20.5847V12.5456L16.4167 10.9041V14.25C16.4167 14.4489 16.4957 14.6397 16.6363 14.7803C16.777 14.921 16.9678 15 17.1667 15C17.3656 15 17.5563 14.921 17.697 14.7803C17.8376 14.6397 17.9167 14.4489 17.9167 14.25V10.0828L20.9167 8.43752V16.4785V16.4794Z" fill="#667085"/>
</svg>
